<svg width="172" height="138" viewBox="0 0 172 138" fill="none" xmlns="http://www.w3.org/2000/svg">
<path d="M24.6855 119.641C24.4512 124.973 17.9766 128.225 5.26172 129.396C4.79297 130.334 4.79297 131.711 5.26172 133.527C16.3359 133.176 24.1875 133 28.8164 133C36.1406 133 44.4902 133.176 53.8652 133.527C54.334 131.711 54.334 130.334 53.8652 129.396C41.0332 128.225 34.5586 124.973 34.4414 119.641C33.8555 101.418 33.5625 85.5391 33.5625 72.0039C33.5625 53.4883 33.7969 37.1113 34.2656 22.873H35.1445L78.0352 130.803H78.9141L118.992 24.9824H119.783C120.369 42.6191 120.662 58.293 120.662 72.0039C120.662 91.0469 120.369 107.307 119.783 120.783C119.666 122.307 118.963 123.625 117.674 124.738C116.443 125.793 114.598 126.643 112.137 127.287C109.676 127.873 107.596 128.283 105.896 128.518C104.197 128.752 102.029 128.986 99.3926 129.221C98.9238 130.158 98.9238 131.535 99.3926 133.352C109.354 133 119.549 132.824 129.979 132.824C142.459 132.824 154.471 133 166.014 133.352C166.482 132.297 166.482 130.92 166.014 129.221C146.561 128.049 136.775 125.295 136.658 120.959C135.955 102.561 135.604 84.0742 135.604 65.5C135.604 47.5117 135.838 31.1348 136.307 16.3691C136.424 12.0332 146.209 9.2793 165.662 8.10742C166.131 6.4082 166.131 5.03125 165.662 3.97656C154.119 4.32812 138.768 4.50391 119.607 4.50391L82.166 102.238L46.1309 4.50391C31.834 4.50391 19.1777 4.26953 8.16211 3.80078C7.57617 4.97266 7.57617 6.08594 8.16211 7.14062C15.1348 8.13672 19.6758 9.60156 21.7852 11.5352C23.9531 13.4102 25.0957 17.7754 25.2129 24.6309C25.623 39.0449 25.8281 52.668 25.8281 65.5C25.8281 83.2539 25.4473 101.301 24.6855 119.641ZM21.082 119.641C21.8438 101.184 22.2246 83.1367 22.2246 65.5C22.2246 52.668 22.0195 39.0449 21.6094 24.6309C21.4922 19.2402 20.4375 15.7832 18.4453 14.2598C16.5117 12.6777 12.293 11.4473 5.78906 10.5684C4.14844 6.99414 4.20703 3.47852 5.96484 0.0214844C19.4414 0.607422 36.9609 0.900391 58.5234 0.900391L87.3516 77.8926L117.059 0.900391C132.762 0.900391 150.105 0.666016 169.09 0.197266C170.262 4.00586 170.379 7.78516 169.441 11.5352C156.492 12.8242 149.959 14.5527 149.842 16.7207C149.314 27.7363 149.051 43.9961 149.051 65.5C149.051 87.707 149.432 106.076 150.193 120.607C150.311 122.775 156.844 124.504 169.793 125.793C170.73 129.543 170.613 133.322 169.441 137.131C150.457 136.662 139.412 136.428 136.307 136.428C131.619 136.428 118.494 136.662 96.9316 137.131C95.4668 133.029 95.4668 129.25 96.9316 125.793C109.646 124.504 116.062 122.834 116.18 120.783C116.766 107.072 117.059 90.8125 117.059 72.0039C117.059 57.3555 117 46.6035 116.883 39.748L81.375 134.406H75.4863L37.166 37.8145V72.0039C37.166 85.5391 37.459 101.418 38.0449 119.641C38.1621 122.805 44.5781 124.914 57.293 125.969C58.7578 129.484 58.7578 133.264 57.293 137.307C39.7734 136.604 21.5801 136.604 2.71289 137.307C1.30664 133.264 1.30664 129.484 2.71289 125.969C14.8418 124.797 20.9648 122.688 21.082 119.641Z" fill="white"/>
</svg>
